<svg width="1211" height="293" viewBox="0 0 1211 293" fill="none" xmlns="http://www.w3.org/2000/svg">
<g clip-path="url(#clip0)">
<path d="M256.54 88.2202H286V195.13H338.9V218.22H256.54V88.2202Z" fill="white"/>
<path d="M347.84 184.4V123.13H374V180.76C374 193.67 379.27 199.86 390.54 199.86C401.63 199.86 410.36 192.95 410.36 178.95V123.13H436.54V218.22H410.39V203.31C405.48 212.95 395.85 220.22 380.21 220.22C361.66 220.22 347.84 209.31 347.84 184.4Z" fill="white"/>
<path d="M448.93 171.85V170.4C448.93 139.67 470.93 120.94 498.03 120.94C520.03 120.94 540.39 130.58 542.76 157.85H517.85C516.03 146.76 509.3 141.67 498.57 141.67C484.94 141.67 475.84 151.85 475.84 170.04V171.49C475.84 190.58 484.39 200.4 499.12 200.4C509.66 200.4 518.21 194.22 519.48 182.04H543.3C541.85 204.58 525.48 220.22 497.85 220.22C470 220.22 448.93 203 448.93 171.85Z" fill="white"/>
<path d="M553.24 95.8502C553.24 87.6702 559.79 81.4902 568.15 81.4902C576.7 81.4902 583.24 87.6702 583.24 95.8502C583.24 104.03 576.7 110.22 568.15 110.22C559.79 110.22 553.24 104 553.24 95.8502ZM555.24 123.13H581.42V218.22H555.24V123.13Z" fill="white"/>
<path d="M594 172V170.54C594 139.27 612 120.9 635.82 120.9C651.09 120.9 660.55 127.63 665.82 137.27V80H692V218.22H665.84V202.4C660.93 212.04 649.29 220.22 635.29 220.22C612.2 220.22 594 203.67 594 172ZM666.55 171.09V169.63C666.55 150.72 658.18 141.09 643.82 141.09C629.09 141.09 620.91 151.09 620.91 170V171.45C620.91 190.36 630 199.63 643.09 199.63C656.93 199.67 666.57 190.4 666.57 171.13L666.55 171.09Z" fill="white"/>
<path d="M704.56 171.85V170.4C704.56 139.67 726.56 120.94 753.66 120.94C775.66 120.94 796.02 130.58 798.39 157.85H773.48C771.66 146.76 764.93 141.67 754.2 141.67C740.57 141.67 731.47 151.85 731.47 170.04V171.49C731.47 190.58 740.02 200.4 754.75 200.4C765.29 200.4 773.84 194.22 775.11 182.04H798.93C797.48 204.58 781.11 220.22 753.48 220.22C725.66 220.22 704.56 203 704.56 171.85Z" fill="white"/>
<path d="M810.89 80H837.25V138.19C841.98 128.73 852.34 120.91 868.16 120.91C886.89 120.91 900.16 132.19 900.16 157.64V218.19H873.8V161.49C873.8 148.58 868.71 142.4 857.07 142.4C845.8 142.4 837.25 149.31 837.25 163.31V218.22H810.89V80Z" fill="white"/>
<path d="M911.7 191.86C911.7 169.67 932.07 161.31 961.16 161.31H971.89V157.49C971.89 146.22 968.43 140.04 956.43 140.04C946.07 140.04 941.34 145.31 940.25 153.49H915.34C916.98 130.94 934.8 120.94 958.07 120.94C981.34 120.94 997.89 130.4 997.89 156.22V218.22H972.25V206.76C966.8 214.4 958.43 220.22 943.52 220.22C926.25 220.22 911.7 211.86 911.7 191.86ZM971.89 185V177H961.71C946.43 177 937.52 180.27 937.52 190.45C937.52 197.36 941.71 201.91 951.34 201.91C963 201.86 971.89 195.49 971.89 185Z" fill="white"/>
<path d="M1014.94 123.13H1041.3V141.31C1047.3 128.58 1056.58 121.85 1072.03 121.67V146.22C1052.58 146.04 1041.3 152.4 1041.3 170.58V218.22H1014.94V123.13Z" fill="white"/>
<path d="M1089.52 190V141.85H1077.34V123.13H1089.52V102.58H1115.7V123.13H1135.7V141.85H1115.7V187.67C1115.7 195.31 1119.52 198.95 1126.25 198.95C1129.67 199.046 1133.08 198.427 1136.25 197.13V217.49C1131.1 219.246 1125.69 220.108 1120.25 220.04C1100.25 220 1089.52 209.86 1089.52 190Z" fill="white"/>
<path d="M75 113.68V189.71L140.77 227.72V208.71L91.44 180.2V123.18L75 113.68Z" fill="#F96B13"/>
<path d="M190.09 123.18V199.21L206.54 189.71V113.68L190.09 123.18Z" fill="#CC4E00"/>
<path d="M124.33 85.1699L190.09 123.18L206.54 113.68L140.77 75.6699L124.33 85.1699Z" fill="#FFCA73"/>
<path d="M75 113.68L91.44 123.18L107.88 113.68L91.44 104.18L75 113.68Z" fill="#FFCA73"/>
<path d="M91.4404 123.18V180.2L107.88 170.7V113.68L91.4404 123.18Z" fill="#CC4E00"/>
<path d="M140.77 208.71V227.72L157.21 218.22V199.21L140.77 208.71Z" fill="#CC4E00"/>
<path d="M91.4404 180.2L140.77 208.71L157.21 199.21L107.88 170.7L91.4404 180.2Z" fill="#FFCA73"/>
<path d="M124.33 85.1699V104.18L173.65 132.69L173.66 189.71L190.09 199.21V123.18L124.33 85.1699Z" fill="#F96B13"/>
</g>
<defs>
<clipPath id="clip0">
<rect width="1211" height="293" fill="white"/>
</clipPath>
</defs>
</svg>
