<svg width="1061" height="152" viewBox="0 0 1061 152" fill="none" xmlns="http://www.w3.org/2000/svg">
<g clip-path="url(#clip0)">
<path d="M181.54 12.5498H211V119.46H263.9V142.55H181.54V12.5498Z" fill="white"/>
<path d="M272.84 108.74V47.46H299V105.1C299 118.01 304.27 124.19 315.54 124.19C326.63 124.19 335.36 117.28 335.36 103.28V47.46H361.54V142.55H335.39V127.65C330.48 137.28 320.85 144.55 305.21 144.55C286.66 144.55 272.84 133.65 272.84 108.74Z" fill="white"/>
<path d="M373.93 96.1898V94.7398C373.93 64.0098 395.93 45.2798 423.03 45.2798C445.03 45.2798 465.39 54.9198 467.76 82.1898H442.85C441 71.0998 434.3 65.9998 423.57 65.9998C409.94 65.9998 400.84 76.1798 400.84 94.3598V95.8198C400.84 114.91 409.39 124.73 424.12 124.73C434.66 124.73 443.21 118.54 444.48 106.36H468.3C466.85 128.91 450.48 144.54 422.85 144.54C395 144.55 373.93 127.28 373.93 96.1898Z" fill="white"/>
<path d="M478.24 20.1898C478.24 12.0098 484.79 5.81982 493.15 5.81982C501.7 5.81982 508.24 12.0098 508.24 20.1898C508.24 28.3698 501.7 34.5498 493.15 34.5498C484.79 34.5498 478.24 28.3698 478.24 20.1898ZM480.24 47.4598H506.42V142.55H480.24V47.4598Z" fill="white"/>
<path d="M519 96.3701V94.9201C519 63.6401 537 45.2801 560.82 45.2801C576.09 45.2801 585.55 52.0101 590.82 61.6401V4.37012H617V142.55H590.84V126.74C585.93 136.37 574.29 144.55 560.29 144.55C537.2 144.55 519 128 519 96.3701ZM591.55 95.4601V94.0001C591.55 75.0901 583.18 65.4501 568.82 65.4501C554.09 65.4501 545.91 75.4501 545.91 94.3601V95.8201C545.91 114.73 555 124 568.09 124C581.93 124 591.57 114.74 591.57 95.4601H591.55Z" fill="white"/>
<path d="M629.56 96.1898V94.7398C629.56 64.0098 651.56 45.2798 678.66 45.2798C700.66 45.2798 721.02 54.9198 723.39 82.1898H698.48C696.66 71.0998 689.93 65.9998 679.2 65.9998C665.57 65.9998 656.47 76.1798 656.47 94.3598V95.8198C656.47 114.91 665.02 124.73 679.75 124.73C690.29 124.73 698.84 118.54 700.11 106.36H723.93C722.48 128.91 706.11 144.54 678.48 144.54C650.66 144.55 629.56 127.28 629.56 96.1898Z" fill="white"/>
<path d="M735.89 4.37012H762.25V62.5501C766.98 53.1001 777.34 45.2801 793.16 45.2801C811.89 45.2801 825.16 56.5501 825.16 82.0101V142.55H798.8V85.8301C798.8 72.9201 793.71 66.7301 782.07 66.7301C770.8 66.7301 762.25 73.6401 762.25 87.6401V142.55H735.89V4.37012Z" fill="white"/>
<path d="M836.7 116.19C836.7 94.0098 857.07 85.6398 886.16 85.6398H896.89V81.8298C896.89 70.5498 893.43 64.3698 881.43 64.3698C871.07 64.3698 866.34 69.6398 865.25 77.8298H840.34C842 55.2798 859.8 45.2798 883.07 45.2798C906.34 45.2798 922.89 54.7298 922.89 80.5498V142.55H897.25V131.1C891.8 138.74 883.43 144.55 868.52 144.55C851.25 144.55 836.7 136.19 836.7 116.19ZM896.89 109.28V101.28H886.71C871.43 101.28 862.52 104.55 862.52 114.74C862.52 121.65 866.71 126.19 876.34 126.19C888 126.19 896.89 119.83 896.89 109.28V109.28Z" fill="white"/>
<path d="M939.94 47.46H966.3V65.64C972.3 52.92 981.58 46.19 997 46V70.55C977.55 70.37 966.27 76.73 966.27 94.92V142.55H939.94V47.46Z" fill="white"/>
<path d="M1014.52 114.37V66.1902H1002.34V47.4602H1014.52V26.9102H1040.7V47.4602H1060.7V66.1902H1040.7V112C1040.7 119.64 1044.52 123.27 1051.25 123.27C1054.67 123.372 1058.08 122.751 1061.25 121.45V141.82C1056.1 143.567 1050.69 144.426 1045.25 144.36C1025.25 144.37 1014.52 134.19 1014.52 114.37Z" fill="white"/>
<path d="M0 38.0098V114.04L65.77 152.06V133.05L16.44 104.54V47.5198L0 38.0098Z" fill="#F96B13"/>
<path d="M115.09 47.5198V123.55L131.54 114.04V38.0098L115.09 47.5198Z" fill="#CC4E00"/>
<path d="M49.3301 9.5L115.09 47.52L131.54 38.01L65.7701 0L49.3301 9.5Z" fill="#FFCA73"/>
<path d="M0 38.0098L16.44 47.5198L32.88 38.0098L16.44 28.5098L0 38.0098Z" fill="#FFCA73"/>
<path d="M16.4404 47.5198V104.54L32.8804 95.0298V38.0098L16.4404 47.5198Z" fill="#CC4E00"/>
<path d="M65.7695 133.05V152.06L82.2095 142.55V123.55L65.7695 133.05Z" fill="#CC4E00"/>
<path d="M16.4404 104.54L65.7704 133.05L82.2104 123.55L32.8804 95.0298L16.4404 104.54Z" fill="#FFCA73"/>
<path d="M49.3301 9.5V28.51L98.6501 57.02L98.6601 114.04L115.09 123.55V47.52L49.3301 9.5Z" fill="#F96B13"/>
</g>
<defs>
<clipPath id="clip0">
<rect width="1061" height="152" fill="white"/>
</clipPath>
</defs>
</svg>
