<svg width="1200" height="200" viewBox="0 0 1200 200" fill="none" xmlns="http://www.w3.org/2000/svg">
<path d="M181.54 27.5498H211V134.46H263.9V157.55H181.54V27.5498Z" fill="white"/>
<path d="M272.84 123.74V62.46H299V120.1C299 133.01 304.27 139.19 315.54 139.19C326.63 139.19 335.36 132.28 335.36 118.28V62.46H361.54V157.55H335.39V142.65C330.48 152.28 320.85 159.55 305.21 159.55C286.66 159.55 272.84 148.65 272.84 123.74Z" fill="white"/>
<path d="M373.93 111.19V109.74C373.93 79.0098 395.93 60.2798 423.03 60.2798C445.03 60.2798 465.39 69.9198 467.76 97.1898H442.85C441 86.0998 434.3 80.9998 423.57 80.9998C409.94 80.9998 400.84 91.1798 400.84 109.36V110.82C400.84 129.91 409.39 139.73 424.12 139.73C434.66 139.73 443.21 133.54 444.48 121.36H468.3C466.85 143.91 450.48 159.54 422.85 159.54C395 159.55 373.93 142.28 373.93 111.19Z" fill="white"/>
<path d="M478.24 35.1898C478.24 27.0098 484.79 20.8198 493.15 20.8198C501.7 20.8198 508.24 27.0098 508.24 35.1898C508.24 43.3698 501.7 49.5498 493.15 49.5498C484.79 49.5498 478.24 43.3698 478.24 35.1898ZM480.24 62.4598H506.42V157.55H480.24V62.4598Z" fill="white"/>
<path d="M519 111.37V109.92C519 78.6401 537 60.2801 560.82 60.2801C576.09 60.2801 585.55 67.0101 590.82 76.6401V19.3701H617V157.55H590.84V141.74C585.93 151.37 574.29 159.55 560.29 159.55C537.2 159.55 519 143 519 111.37ZM591.55 110.46V109C591.55 90.0901 583.18 80.4501 568.82 80.4501C554.09 80.4501 545.91 90.4501 545.91 109.36V110.82C545.91 129.73 555 139 568.09 139C581.93 139 591.57 129.74 591.57 110.46H591.55Z" fill="white"/>
<path d="M629.56 111.19V109.74C629.56 79.0098 651.56 60.2798 678.66 60.2798C700.66 60.2798 721.02 69.9198 723.39 97.1898H698.48C696.66 86.0998 689.93 80.9998 679.2 80.9998C665.57 80.9998 656.47 91.1798 656.47 109.36V110.82C656.47 129.91 665.02 139.73 679.75 139.73C690.29 139.73 698.84 133.54 700.11 121.36H723.93C722.48 143.91 706.11 159.54 678.48 159.54C650.66 159.55 629.56 142.28 629.56 111.19Z" fill="white"/>
<path d="M735.89 19.3701H762.25V77.5501C766.98 68.1001 777.34 60.2801 793.16 60.2801C811.89 60.2801 825.16 71.5501 825.16 97.0101V157.55H798.8V100.83C798.8 87.9201 793.71 81.7301 782.07 81.7301C770.8 81.7301 762.25 88.6401 762.25 102.64V157.55H735.89V19.3701Z" fill="white"/>
<path d="M836.7 131.19C836.7 109.01 857.07 100.64 886.16 100.64H896.89V96.8298C896.89 85.5498 893.43 79.3698 881.43 79.3698C871.07 79.3698 866.34 84.6398 865.25 92.8298H840.34C842 70.2798 859.8 60.2798 883.07 60.2798C906.34 60.2798 922.89 69.7298 922.89 95.5498V157.55H897.25V146.1C891.8 153.74 883.43 159.55 868.52 159.55C851.25 159.55 836.7 151.19 836.7 131.19ZM896.89 124.28V116.28H886.71C871.43 116.28 862.52 119.55 862.52 129.74C862.52 136.65 866.71 141.19 876.34 141.19C888 141.19 896.89 134.83 896.89 124.28V124.28Z" fill="white"/>
<path d="M939.94 62.46H966.3V80.64C972.3 67.92 981.58 61.19 997 61V85.55C977.55 85.37 966.27 91.73 966.27 109.92V157.55H939.94V62.46Z" fill="white"/>
<path d="M1014.52 129.37V81.1902H1002.34V62.4602H1014.52V41.9102H1040.7V62.4602H1060.7V81.1902H1040.7V127C1040.7 134.64 1044.52 138.27 1051.25 138.27C1054.67 138.372 1058.08 137.751 1061.25 136.45V156.82C1056.1 158.567 1050.69 159.426 1045.25 159.36C1025.25 159.37 1014.52 149.19 1014.52 129.37Z" fill="white"/>
<path d="M0 53.0098V129.04L65.77 167.06V148.05L16.44 119.54V62.5198L0 53.0098Z" fill="#F96B13"/>
<path d="M115.09 62.5198V138.55L131.54 129.04V53.0098L115.09 62.5198Z" fill="#CC4E00"/>
<path d="M49.3301 24.5L115.09 62.52L131.54 53.01L65.7701 15L49.3301 24.5Z" fill="#FFCA73"/>
<path d="M0 53.0098L16.44 62.5198L32.88 53.0098L16.44 43.5098L0 53.0098Z" fill="#FFCA73"/>
<path d="M16.4404 62.5198V119.54L32.8804 110.03V53.0098L16.4404 62.5198Z" fill="#CC4E00"/>
<path d="M65.7695 148.05V167.06L82.2095 157.55V138.55L65.7695 148.05Z" fill="#CC4E00"/>
<path d="M16.4404 119.54L65.7704 148.05L82.2104 138.55L32.8804 110.03L16.4404 119.54Z" fill="#FFCA73"/>
<path d="M49.3301 24.5V43.51L98.6501 72.02L98.6601 129.04L115.09 138.55V62.52L49.3301 24.5Z" fill="#F96B13"/>
</svg>
